<?xml version="1.0" encoding="UTF-8"?><!DOCTYPE svg PUBLIC "-//W3C//DTD SVG 1.0//EN" "http://www.w3.org/TR/2001/REC-SVG-20010904/DTD/svg10.dtd" []><svg xmlns="http://www.w3.org/2000/svg" xmlns:xlink="http://www.w3.org/1999/xlink" fill="none" height="78" style="fill: none;" viewBox="0 0 330 78" width="330"><path d="M43.9943 42.9113C45.7095 44.0917 47.4821 44.682 49.3122 44.682C49.9318 44.682 50.4078 44.5416 50.7484 44.261C51.089 43.9803 51.2572 43.646 51.2572 43.258C51.2572 42.87 51.1218 42.5522 50.851 42.2962C50.5801 42.0403 49.8826 41.7514 48.7624 41.4212C44.9627 40.3233 43.0669 38.4246 43.0669 35.7251C43.0669 34.7139 43.3254 33.8265 43.8465 33.067C44.938 31.4572 46.9405 30.6523 49.8538 30.6523C52.1558 30.6523 54.109 31.0486 55.7093 31.837L54.8969 35.4857C53.3253 34.7015 51.725 34.3135 50.0918 34.3135C49.3204 34.3135 48.7583 34.4497 48.3972 34.718C48.0402 34.9863 47.8596 35.2959 47.8596 35.6508C47.8596 36.3649 48.3684 36.8644 49.3943 37.145C51.8645 37.8219 53.5961 38.6144 54.5809 39.5266C55.5698 40.4388 56.0622 41.6111 56.0622 43.0351C56.0622 44.7315 55.4754 46.0358 54.306 46.9522C53.1365 47.8685 51.3393 48.3266 48.9224 48.3266C47.3221 48.3266 45.7341 47.9717 44.1625 47.2576C43.6906 47.043 43.2803 46.8118 42.9397 46.5683L43.9902 42.9113H43.9943Z" fill="#fff"/><path d="M65.6846 48.3309C62.6481 48.3309 60.5841 47.2495 59.4844 45.0866C58.9346 44.0052 58.6597 42.6555 58.6597 41.0375V33.6615C58.6597 32.741 58.2001 31.8206 57.285 30.9001H64.7654C63.8504 31.8206 63.3908 32.741 63.3908 33.6615V41.3842C63.3908 42.5275 63.5919 43.3448 63.9899 43.836C64.392 44.3272 64.9706 44.5707 65.7338 44.5707C66.4971 44.5707 67.0756 44.3272 67.4736 43.836C67.8717 43.3448 68.0686 42.5275 68.0686 41.3842V33.6615C68.0686 32.741 67.6091 31.8206 66.694 30.9001H74.0841C73.1691 31.8206 72.7095 32.741 72.7095 33.6615V41.0375C72.7095 44.2529 71.6344 46.4157 69.4843 47.526C68.4338 48.0626 67.1618 48.3309 65.6764 48.3309H65.6846Z" fill="#fff"/><path d="M81.9831 42.7957C81.3635 42.7957 80.8588 42.7709 80.4608 42.7255V45.3383C80.4608 46.2587 80.9204 47.1792 81.8354 48.0996H74.5273C75.4424 47.1792 75.902 46.2587 75.902 45.3383V31.0115C77.572 30.7721 79.2872 30.6565 81.0476 30.6565C86.3573 30.6565 89.0081 32.5841 89.0081 36.431C89.0081 38.5195 88.4131 40.1004 87.219 41.1777C86.0249 42.255 84.281 42.7957 81.9872 42.7957H81.9831ZM81.5153 34.2021C81.2322 34.2021 80.8834 34.2392 80.4649 34.3177V39.312C80.7685 39.3574 81.1214 39.3822 81.5153 39.3822C82.5289 39.3822 83.3126 39.1469 83.8584 38.6805C84.4082 38.2141 84.6831 37.5578 84.6831 36.7117C84.6831 35.8655 84.4328 35.2381 83.9281 34.8253C83.4234 34.4126 82.6192 34.2021 81.5153 34.2021Z" fill="#fff"/><path d="M102.036 36.1091V42.416C101.121 41.4956 100.206 41.0374 99.291 41.0374H97.3132C96.3982 41.0374 95.9386 41.4997 95.9386 42.416V42.9444C95.9386 43.8648 96.3982 44.3271 97.3132 44.3271H99.7629C100.678 44.3271 101.593 43.8648 102.508 42.9444V49.4783C101.593 48.5579 100.678 48.0956 99.7629 48.0956H94.01C93.095 48.0956 91.7204 48.5579 89.8903 49.4783C90.8053 47.6374 91.2649 46.2547 91.2649 45.3342V33.6614C91.2649 32.741 90.8053 31.3582 89.8903 29.5173C91.7204 30.4378 93.095 30.9001 94.01 30.9001H99.7629C100.678 30.9001 101.593 30.4378 102.508 29.5173V36.0513C101.593 35.1308 100.678 34.6727 99.7629 34.6727H97.3132C96.3982 34.6727 95.9386 35.135 95.9386 36.0513V36.1091C95.9386 37.0295 96.3982 37.4918 97.3132 37.4918H99.291C100.206 37.4918 101.121 37.0295 102.036 36.1091Z" fill="#fff"/><path d="M111.773 30.6565C116.455 30.6565 118.798 32.4231 118.798 35.9604C118.798 37.2936 118.273 38.4659 117.219 39.4689C116.73 39.9436 116.168 40.3026 115.524 40.5379V40.5833C116.148 40.9383 116.644 41.4295 117.009 42.0693C117.206 42.4201 117.399 42.8576 117.58 43.3818L119.262 48.0996H114.469L113.017 43.6254C112.84 43.0805 112.623 42.6884 112.364 42.4531C112.106 42.2178 111.749 42.0981 111.302 42.0981H110.251V45.3424C110.251 46.2629 110.711 47.1833 111.626 48.1038H104.318C105.233 47.1833 105.692 46.2629 105.692 45.3424V31.0115C107.871 30.7721 109.902 30.6565 111.778 30.6565H111.773ZM111.544 34.2021C111.1 34.2021 110.67 34.2392 110.251 34.3177V38.6805H111.544C112.336 38.6805 112.963 38.4783 113.427 38.0696C113.887 37.661 114.121 37.1038 114.121 36.3897C114.121 34.9327 113.263 34.2021 111.548 34.2021H111.544Z" fill="#fff"/><path d="M140.919 46.6839C139.385 47.7818 137.51 48.3308 135.29 48.3308C132.536 48.3308 130.325 47.5424 128.655 45.9657C126.984 44.389 126.151 42.2261 126.151 39.4771C126.151 36.7282 126.952 34.5694 128.552 33.0051C130.152 31.4407 132.401 30.6565 135.29 30.6565C137.469 30.6565 139.348 31.2096 140.919 32.3117L139.627 35.7293C138.338 34.8625 137.12 34.4291 135.971 34.4291C134.822 34.4291 133.89 34.619 133.172 35.0028C131.691 35.8077 130.952 37.306 130.952 39.4895C130.952 40.5627 131.158 41.479 131.564 42.2344C131.97 42.9897 132.536 43.5676 133.263 43.9679C133.989 44.3683 134.81 44.5664 135.733 44.5664C136.656 44.5664 137.415 44.4302 138.01 44.1578C138.605 43.8854 139.143 43.5882 139.623 43.2663L140.915 46.6839H140.919Z" fill="#fff"/><path d="M149.955 30.6565C154.637 30.6565 156.98 32.4231 156.98 35.9604C156.98 37.2936 156.455 38.4659 155.4 39.4689C154.912 39.9436 154.35 40.3026 153.706 40.5379V40.5833C154.329 40.9383 154.826 41.4295 155.191 42.0693C155.388 42.4201 155.581 42.8576 155.761 43.3818L157.444 48.0996H152.651L151.198 43.6254C151.022 43.0805 150.804 42.6884 150.546 42.4531C150.287 42.2137 149.93 42.0981 149.483 42.0981H148.433V45.3424C148.433 46.2629 148.892 47.1833 149.807 48.1038H142.499C143.414 47.1833 143.874 46.2629 143.874 45.3424V31.0115C146.053 30.7721 148.084 30.6565 149.959 30.6565H149.955ZM149.725 34.2021C149.282 34.2021 148.851 34.2392 148.433 34.3177V38.6805H149.725C150.517 38.6805 151.145 38.4783 151.609 38.0696C152.072 37.661 152.302 37.1038 152.302 36.3897C152.302 34.9327 151.445 34.2021 149.729 34.2021H149.725Z" fill="#fff"/><path d="M166.738 37.9624H166.795L169.573 30.896H174.801L169.126 41.735V45.3384C169.126 46.2588 169.585 47.1793 170.496 48.0998H162.926C163.841 47.1793 164.296 46.2588 164.296 45.3384V41.735L158.634 30.896H163.952L166.73 37.9624H166.738Z" fill="#fff"/><path d="M183.016 42.7957C182.4 42.7957 181.891 42.7709 181.493 42.7255V45.3383C181.493 46.2587 181.953 47.1792 182.864 48.0996H175.556C176.471 47.1792 176.931 46.2587 176.931 45.3383V31.0115C178.601 30.7721 180.316 30.6565 182.076 30.6565C187.382 30.6565 190.037 32.5841 190.037 36.431C190.037 38.5195 189.438 40.1004 188.248 41.1777C187.058 42.255 185.31 42.7957 183.016 42.7957ZM182.548 34.2021C182.265 34.2021 181.916 34.2392 181.498 34.3177V39.312C181.801 39.3574 182.154 39.3822 182.548 39.3822C183.562 39.3822 184.345 39.1469 184.891 38.6805C185.437 38.2141 185.716 37.5578 185.716 36.7117C185.716 35.8655 185.466 35.2381 184.961 34.8253C184.456 34.4126 183.652 34.2021 182.548 34.2021Z" fill="#fff"/><path d="M205.756 29.5173V36.1669C204.841 35.2464 203.926 34.7841 203.011 34.7841H202.498C201.583 34.7841 201.124 35.2464 201.124 36.1669V45.3383C201.124 46.2588 201.583 47.1793 202.498 48.0997H194.973C195.888 47.1793 196.343 46.2588 196.343 45.3383V36.1669C196.343 35.2464 195.884 34.7841 194.973 34.7841H194.448C193.533 34.7841 192.618 35.2464 191.703 36.1669V29.5173C192.618 30.4378 193.533 30.9001 194.448 30.9001H203.015C203.93 30.9001 204.846 30.4378 205.761 29.5173H205.756Z" fill="#fff"/><path d="M209.909 33.0257C211.497 31.4449 213.631 30.6565 216.314 30.6565C218.998 30.6565 221.136 31.449 222.72 33.0257C224.304 34.6025 225.1 36.7612 225.1 39.4936C225.1 42.2261 224.308 44.3807 222.72 45.9616C221.132 47.5424 218.998 48.3308 216.314 48.3308C213.631 48.3308 211.493 47.5424 209.909 45.9616C208.321 44.3807 207.529 42.2261 207.529 39.4936C207.529 36.7612 208.321 34.6066 209.909 33.0257ZM213.368 43.2374C214.058 44.0464 215.038 44.4509 216.314 44.4509C217.591 44.4509 218.571 44.0464 219.265 43.2374C219.958 42.4284 220.307 41.1777 220.307 39.4936C220.307 37.8096 219.958 36.5589 219.265 35.7541C218.571 34.9492 217.586 34.5447 216.314 34.5447C215.042 34.5447 214.058 34.9492 213.368 35.7541C212.679 36.5589 212.334 37.8055 212.334 39.4936C212.334 41.1818 212.679 42.4284 213.368 43.2374Z" fill="#fff"/><path d="M246.24 38.6764H246.195L243.897 44.5665H239.675L237.385 38.6764H237.34V45.3383C237.34 46.2588 237.8 47.1793 238.715 48.0997H231.567C232.482 47.1793 232.941 46.2588 232.941 45.3383V33.6614C232.941 32.741 232.482 31.3582 231.567 29.5173C233.397 30.4378 234.771 30.9001 235.686 30.9001H237.804L241.772 41.0374H241.817L245.772 30.9001H247.992C248.907 30.9001 250.282 30.4378 252.112 29.5173C251.197 31.3582 250.737 32.741 250.737 33.6614V45.3383C250.737 46.2588 251.197 47.1793 252.112 48.0997H244.87C245.785 47.1793 246.244 46.2588 246.244 45.3383V38.6764H246.24Z" fill="#fff"/><path d="M258.628 44.7977L257.849 48.0998H252.974L258.599 30.896H263.519L269.137 48.0998H264.172L263.372 44.7977H258.624H258.628ZM259.465 41.2645H262.563L261.041 34.8997H260.996L259.461 41.2645H259.465Z" fill="#fff"/><path d="M281.061 40.3233H281.106V33.6614C281.106 32.741 280.651 31.8205 279.736 30.9001H287.056C286.141 31.8205 285.686 32.741 285.686 33.6614V45.3383C285.686 46.2588 286.145 47.6415 287.056 49.4824C285.226 48.562 283.851 48.0997 282.936 48.0997H281.106L276.006 38.6764H275.961V45.3383C275.961 46.2588 276.42 47.1792 277.331 48.0997H270.023C270.938 47.1792 271.398 46.2588 271.398 45.3383V33.6614C271.398 32.741 270.938 31.3582 270.023 29.5173C271.853 30.4378 273.228 30.9001 274.143 30.9001H275.961L281.061 40.3233Z" fill="#fff"/><path d="M21.8567 37.8799C20.7406 37.8799 19.6245 37.8799 18.5125 37.8799C18.3647 37.8799 18.3155 37.9171 18.3196 38.0698C18.3278 38.4991 18.3196 38.9283 18.3196 39.3576C18.3196 39.4856 18.2786 39.5268 18.1514 39.5268C17.1584 39.5268 16.1695 39.5227 15.1764 39.5268C15.0369 39.5268 15 39.4773 15 39.3452C15 37.8056 15 36.266 15 34.7223C15 34.5655 15.0616 34.5366 15.2011 34.5366C17.2527 34.5366 19.3003 34.5366 21.352 34.5366C21.497 34.5366 21.5695 34.4637 21.5695 34.3178C21.5695 32.2747 21.5695 30.2356 21.5695 28.1925C21.5695 28.0522 21.4983 27.982 21.3561 27.982C19.3167 27.982 17.2774 27.982 15.2339 27.982C15.0807 27.982 15.0041 27.9063 15.0041 27.755C15.0041 26.2443 15.0041 24.7377 15.0041 23.227C15 23 15 23 15.2257 23C16.19 23 17.1584 23.0041 18.1226 23C18.2745 23 18.3278 23.0413 18.3237 23.2023C18.3155 23.615 18.3237 24.0278 18.3237 24.4447C18.3237 24.5987 18.3976 24.6758 18.5453 24.6758C20.7242 24.6758 22.9031 24.6758 25.0819 24.6758C25.4676 24.6758 25.4143 24.6263 25.4143 25.0143C25.4143 29.1955 25.4143 33.3767 25.4143 37.558C25.4143 37.6158 25.4102 37.6735 25.4143 37.7272C25.4266 37.8428 25.3733 37.8799 25.2625 37.8799C24.8891 37.8758 24.5116 37.8799 24.1382 37.8799C23.379 37.8799 22.6158 37.8799 21.8567 37.8799Z" fill="#fff"/><path d="M26.473 31.2634C26.473 29.1294 26.473 26.9913 26.473 24.8574C26.473 24.684 26.5469 24.6675 26.6864 24.6675C28.9186 24.6675 31.1467 24.6675 33.379 24.6675C33.5267 24.6675 33.6005 24.5905 33.6005 24.4364C33.6005 24.0112 33.6005 23.5902 33.6005 23.1651C33.6005 23.0371 33.6457 22.9958 33.7729 22.9958C34.7577 22.9958 35.7466 22.9958 36.7314 22.9958C36.8463 22.9958 36.8955 23.033 36.8955 23.1568C36.8955 24.7129 36.8955 26.269 36.8955 27.8251C36.8955 27.9861 36.8053 27.9778 36.6986 27.9778C35.1557 27.9778 33.6129 27.9778 32.0741 27.9778C31.5489 27.9778 31.0236 27.9778 30.5025 27.9778C30.3712 27.9778 30.3261 28.0109 30.3261 28.1512C30.3261 30.2191 30.3302 32.287 30.3261 34.355C30.3261 34.4994 30.3712 34.5366 30.5107 34.5366C32.5378 34.5366 34.5607 34.5366 36.5878 34.5366C36.6411 34.5366 36.6904 34.5407 36.7437 34.5366C36.8668 34.5242 36.9037 34.5778 36.9037 34.6975C36.9037 36.2536 36.9037 37.8097 36.9037 39.3658C36.9037 39.4938 36.8545 39.5227 36.7396 39.5227C35.7548 39.5227 34.7659 39.5227 33.7811 39.5227C33.658 39.5227 33.6087 39.4855 33.6129 39.3576C33.6211 38.9407 33.6129 38.5197 33.6129 38.1028C33.6129 37.9542 33.5404 37.8799 33.3954 37.8799C31.2001 37.8799 29.0048 37.8799 26.8095 37.8799C26.7644 37.8799 26.7151 37.8758 26.67 37.8799C26.5182 37.9005 26.4812 37.8304 26.4812 37.6859C26.4853 35.6056 26.4812 33.5294 26.4853 31.4491C26.4853 31.3872 26.4853 31.3253 26.4853 31.2634H26.473Z" fill="#fff"/><path d="M36.8873 47.7613C36.8873 49.8953 36.8873 52.0292 36.8873 54.1673C36.8873 54.3407 36.8175 54.3572 36.678 54.3572C34.4581 54.3572 32.2382 54.3572 30.0183 54.3572C29.8678 54.3572 29.7926 54.4329 29.7926 54.5842C29.7926 54.997 29.7885 55.4097 29.7926 55.8266C29.7926 55.9669 29.7433 56.0041 29.612 56.0041C28.6272 56 27.6383 56 26.6535 56.0041C26.5099 56.0041 26.4689 55.9546 26.4689 55.8184C26.4689 54.2953 26.4689 52.7681 26.4689 51.245C26.4689 51.0799 26.5263 51.051 26.674 51.051C28.7257 51.051 30.7733 51.051 32.825 51.051C32.9672 51.051 33.0397 50.9822 33.0424 50.8446C33.0424 48.7891 33.0424 46.7294 33.0424 44.6739C33.0424 44.5363 32.9754 44.4675 32.8414 44.4675C30.7979 44.4675 28.7503 44.4675 26.7069 44.4675C26.5537 44.4675 26.4771 44.3918 26.4771 44.2405C26.4771 42.738 26.4771 41.2315 26.4771 39.729C26.4771 39.5144 26.4771 39.5144 26.6863 39.5144C27.6588 39.5144 28.6272 39.5144 29.5997 39.5144C29.7557 39.5144 29.8049 39.5598 29.8008 39.7167C29.7926 40.1294 29.8008 40.5422 29.8008 40.9591C29.8008 41.0966 29.8678 41.1654 30.0019 41.1654C32.1848 41.1654 34.3719 41.1654 36.5549 41.1654C36.6 41.1654 36.6493 41.1654 36.6944 41.1654C36.8955 41.1654 36.8955 41.1654 36.8955 41.3759C36.8955 42.5275 36.8955 43.6833 36.8955 44.8349C36.8955 45.8172 36.8955 46.7996 36.8955 47.7819L36.8873 47.7613Z" fill="#fff"/><path d="M15 47.7491C15 45.6151 15 43.477 15 41.3431C15 41.1862 15.0451 41.1408 15.201 41.1408C17.4374 41.1449 19.6737 41.1408 21.9059 41.1408C22.0509 41.1408 22.1234 41.0665 22.1234 40.9179C22.1234 40.501 22.1234 40.08 22.1234 39.6631C22.1234 39.5352 22.1644 39.4939 22.2916 39.4939C23.2764 39.4939 24.2653 39.4939 25.2501 39.4939C25.3773 39.4939 25.4184 39.5393 25.4184 39.6631C25.4184 41.1986 25.4143 42.734 25.4184 44.2695C25.4184 44.4346 25.3486 44.4511 25.2173 44.4511C23.1656 44.4511 21.1181 44.4511 19.0664 44.4511C18.9214 44.4511 18.8489 44.524 18.8489 44.6699C18.8489 46.7172 18.8489 48.7644 18.8489 50.8117C18.8489 50.9603 18.9255 51.0346 19.0787 51.0346C21.114 51.0346 23.1492 51.0346 25.1845 51.0346C25.3404 51.0346 25.4184 51.1089 25.4184 51.2575C25.4184 52.7599 25.4184 54.2665 25.4184 55.7689C25.4184 55.9836 25.4184 55.9836 25.2091 55.9836C24.2489 55.9836 23.2887 55.9836 22.3244 55.9836C22.1685 55.9836 22.1193 55.9423 22.1234 55.7854C22.1357 55.3768 22.1234 54.9682 22.1234 54.5596C22.1234 54.411 22.0509 54.3367 21.9059 54.3367C19.7024 54.3367 17.4948 54.3367 15.2913 54.3367C15.238 54.3367 15.1887 54.3367 15.1354 54.3367C15.0369 54.3449 14.9918 54.2995 14.9959 54.2005C14.9959 54.1509 14.9959 54.0973 14.9959 54.0436C14.9959 51.9385 14.9959 49.8376 14.9959 47.7325L15 47.7491Z" fill="#fff"/><path d="M20.4822 31.2923C20.4822 32.1384 20.4822 32.9887 20.4822 33.8349C20.4822 33.9917 20.437 34.0371 20.2811 34.0371C18.7711 34.033 17.261 34.033 15.751 34.0371C15.5951 34.0371 15.5499 33.9917 15.5499 33.8349C15.554 32.1302 15.554 30.4255 15.5499 28.7167C15.5499 28.5598 15.5951 28.5144 15.751 28.5144C17.261 28.5185 18.7711 28.5185 20.2811 28.5144C20.437 28.5144 20.4822 28.5598 20.4822 28.7167C20.4739 29.5752 20.4822 30.4337 20.4822 31.2923ZM18.8244 31.2758C18.8244 30.9662 18.8244 30.6566 18.8244 30.347C18.8244 30.2273 18.7957 30.1819 18.6685 30.1819C18.2335 30.1902 17.7945 30.1902 17.3595 30.1819C17.2323 30.1819 17.2036 30.2315 17.2036 30.347C17.2077 30.9662 17.2077 31.5853 17.2036 32.2045C17.2036 32.32 17.2323 32.3696 17.3595 32.3696C17.7945 32.3613 18.2335 32.3613 18.6685 32.3696C18.7957 32.3696 18.8244 32.32 18.8203 32.2045C18.8162 31.8949 18.8203 31.5853 18.8203 31.2758H18.8244Z" fill="#fff"/><path d="M31.4093 31.2634C31.4093 30.4172 31.4093 29.567 31.4093 28.7208C31.4093 28.5681 31.4503 28.5186 31.6063 28.5186C33.1163 28.5227 34.6263 28.5227 36.1364 28.5186C36.2882 28.5186 36.3374 28.5598 36.3374 28.7167C36.3333 30.4214 36.3333 32.1261 36.3374 33.8349C36.3374 33.9876 36.2964 34.0371 36.1405 34.0371C34.6304 34.033 33.1204 34.033 31.6104 34.0371C31.4585 34.0371 31.4093 33.9959 31.4093 33.839C31.4175 32.9805 31.4093 32.1219 31.4093 31.2634ZM33.0671 31.2799C33.0671 31.5895 33.0671 31.899 33.0671 32.2086C33.0671 32.3242 33.0958 32.3737 33.223 32.3737C33.6579 32.3655 34.097 32.3655 34.5319 32.3737C34.6592 32.3737 34.6879 32.3242 34.6879 32.2086C34.6838 31.5895 34.6838 30.9703 34.6879 30.3512C34.6879 30.2356 34.6592 30.1861 34.5319 30.1861C34.097 30.1944 33.6579 30.1944 33.223 30.1861C33.0958 30.1861 33.0671 30.2356 33.0712 30.3512C33.0753 30.6608 33.0712 30.9703 33.0712 31.2799H33.0671Z" fill="#fff"/><path d="M24.8603 47.7489C24.8603 48.6033 24.8603 49.4536 24.8603 50.308C24.8603 50.4648 24.8193 50.5102 24.6593 50.5102C23.1492 50.5061 21.6392 50.5061 20.1292 50.5102C19.9732 50.5102 19.9281 50.4648 19.9281 50.308C19.9322 48.6033 19.9322 46.8986 19.9281 45.1898C19.9281 45.033 19.9691 44.9875 20.1292 44.9875C21.6392 44.9917 23.1492 44.9917 24.6593 44.9875C24.8152 44.9875 24.8603 45.0288 24.8603 45.1898C24.8521 46.0442 24.8603 46.8945 24.8603 47.7489ZM23.2067 47.7489C23.2067 47.4393 23.2067 47.1298 23.2067 46.8202C23.2067 46.7005 23.178 46.6551 23.0508 46.6551C22.6158 46.6633 22.1767 46.6592 21.7418 46.6551C21.631 46.6551 21.5859 46.6881 21.59 46.8037C21.5941 47.4352 21.5941 48.0626 21.59 48.6941C21.59 48.8138 21.6392 48.8427 21.7459 48.8386C22.1808 48.8345 22.6199 48.8345 23.0549 48.8386C23.1821 48.8386 23.2108 48.789 23.2067 48.6735C23.2026 48.3639 23.2067 48.0543 23.2067 47.7448V47.7489Z" fill="#fff"/><path d="M31.9551 47.7489C31.9551 48.6033 31.9551 49.4536 31.9551 50.308C31.9551 50.4648 31.9099 50.5102 31.754 50.5102C30.244 50.5061 28.7339 50.5061 27.2239 50.5102C27.068 50.5102 27.0228 50.4648 27.0228 50.308C27.0269 48.6033 27.0269 46.8986 27.0228 45.1898C27.0228 45.033 27.068 44.9875 27.2239 44.9875C28.7339 44.9917 30.244 44.9917 31.754 44.9875C31.9099 44.9875 31.9551 45.033 31.9551 45.1898C31.9468 46.0442 31.9551 46.8945 31.9551 47.7489ZM30.2973 47.7613C30.2973 47.4393 30.2973 47.1215 30.2973 46.7996C30.2973 46.6922 30.2645 46.6551 30.1537 46.6551C29.7146 46.6592 29.2715 46.6592 28.8283 46.6551C28.7134 46.6551 28.6765 46.6922 28.6765 46.8078C28.6806 47.4393 28.6806 48.0667 28.6765 48.6982C28.6765 48.8056 28.7093 48.8427 28.8201 48.8427C29.2592 48.8386 29.7023 48.8386 30.1455 48.8427C30.2604 48.8427 30.2973 48.8056 30.2973 48.69C30.2932 48.3804 30.2973 48.0708 30.2973 47.7613Z" fill="#fff"/><path d="M299.965 37.8799C298.849 37.8799 297.733 37.8799 296.621 37.8799C296.473 37.8799 296.424 37.9171 296.428 38.0698C296.436 38.4991 296.428 38.9284 296.428 39.3576C296.428 39.4856 296.387 39.5269 296.26 39.5269C295.267 39.5269 294.278 39.5227 293.285 39.5269C293.146 39.5269 293.109 39.4773 293.109 39.3452C293.109 37.8056 293.109 36.2661 293.109 34.7223C293.109 34.5655 293.17 34.5366 293.31 34.5366C295.361 34.5366 297.409 34.5366 299.461 34.5366C299.606 34.5366 299.678 34.4637 299.678 34.3178C299.678 32.2747 299.678 30.2357 299.678 28.1925C299.678 28.0522 299.607 27.982 299.465 27.982C297.425 27.982 295.386 27.982 293.343 27.982C293.189 27.982 293.113 27.9063 293.113 27.755C293.113 26.2443 293.113 24.7377 293.113 23.227C293.113 23.0042 293.113 23.0042 293.334 23.0042C294.299 23.0042 295.267 23.0042 296.231 23.0042C296.383 23.0042 296.436 23.0454 296.432 23.2064C296.424 23.6192 296.432 24.0319 296.432 24.4488C296.432 24.6029 296.506 24.6799 296.654 24.6799C298.833 24.6799 301.012 24.6799 303.191 24.6799C303.576 24.6799 303.523 24.6304 303.523 25.0184C303.523 29.1996 303.523 33.3809 303.523 37.5621C303.523 37.6199 303.519 37.6777 303.523 37.7314C303.535 37.8469 303.482 37.8841 303.371 37.8841C302.998 37.8799 302.62 37.8841 302.247 37.8841C301.488 37.8841 300.724 37.8841 299.965 37.8841V37.8799Z" fill="#fff"/><path d="M304.582 31.2634C304.582 29.1294 304.582 26.9913 304.582 24.8574C304.582 24.684 304.655 24.6675 304.795 24.6675C307.027 24.6675 309.255 24.6675 311.487 24.6675C311.635 24.6675 311.709 24.5905 311.709 24.4364C311.709 24.0112 311.709 23.5902 311.709 23.1651C311.709 23.0371 311.754 22.9958 311.881 22.9958C312.866 22.9958 313.855 22.9958 314.84 22.9958C314.955 22.9958 315.004 23.033 315.004 23.1568C315.004 24.7129 315.004 26.269 315.004 27.8251C315.004 27.9861 314.914 27.9778 314.807 27.9778C313.264 27.9778 311.721 27.9778 310.183 27.9778C309.657 27.9778 309.132 27.9778 308.611 27.9778C308.48 27.9778 308.435 28.0109 308.435 28.1512C308.435 30.2191 308.439 32.287 308.435 34.355C308.435 34.4994 308.48 34.5366 308.619 34.5366C310.646 34.5366 312.669 34.5366 314.696 34.5366C314.75 34.5366 314.799 34.5407 314.852 34.5366C314.975 34.5242 315.012 34.5778 315.012 34.6975C315.012 36.2536 315.012 37.8097 315.012 39.3658C315.012 39.4938 314.963 39.5227 314.848 39.5227C313.863 39.5227 312.874 39.5227 311.89 39.5227C311.767 39.5227 311.717 39.4855 311.721 39.3576C311.73 38.9407 311.721 38.5197 311.721 38.1028C311.721 37.9542 311.649 37.8799 311.504 37.8799C309.309 37.8799 307.113 37.8799 304.918 37.8799C304.873 37.8799 304.824 37.8758 304.779 37.8799C304.627 37.9005 304.59 37.8304 304.59 37.6859C304.594 35.6056 304.59 33.5294 304.594 31.4491C304.594 31.3872 304.594 31.3253 304.594 31.2634H304.582Z" fill="#fff"/><path d="M314.996 47.7613C314.996 49.8953 314.996 52.0292 314.996 54.1673C314.996 54.3407 314.926 54.3572 314.787 54.3572C312.567 54.3572 310.347 54.3572 308.127 54.3572C307.976 54.3572 307.901 54.4329 307.901 54.5842C307.901 54.997 307.897 55.4097 307.901 55.8266C307.901 55.9669 307.852 56.0041 307.721 56.0041C306.736 56 305.747 56 304.762 56.0041C304.619 56.0041 304.578 55.9546 304.578 55.8184C304.578 54.2953 304.578 52.7681 304.578 51.245C304.578 51.0799 304.635 51.051 304.783 51.051C306.834 51.051 308.882 51.051 310.934 51.051C311.076 51.051 311.148 50.9822 311.151 50.8446C311.151 48.7891 311.151 46.7294 311.151 44.6739C311.151 44.5363 311.084 44.4675 310.95 44.4675C308.907 44.4675 306.859 44.4675 304.815 44.4675C304.662 44.4675 304.586 44.3918 304.586 44.2405C304.586 42.738 304.586 41.2315 304.586 39.729C304.586 39.5144 304.586 39.5144 304.795 39.5144C305.767 39.5144 306.736 39.5144 307.708 39.5144C307.864 39.5144 307.914 39.5598 307.909 39.7167C307.901 40.1294 307.909 40.5422 307.909 40.9591C307.909 41.0966 307.976 41.1654 308.11 41.1654C310.293 41.1654 312.481 41.1654 314.664 41.1654C314.709 41.1654 314.758 41.1654 314.803 41.1654C315.004 41.1654 315.004 41.1654 315.004 41.3759C315.004 42.5275 315.004 43.6833 315.004 44.8349C315.004 45.8172 315.004 46.7996 315.004 47.7819L314.996 47.7613Z" fill="#fff"/><path d="M293.109 47.7491C293.109 45.6151 293.109 43.477 293.109 41.3431C293.109 41.1862 293.154 41.1408 293.31 41.1408C295.546 41.1449 297.782 41.1408 300.015 41.1408C300.16 41.1408 300.232 41.0665 300.232 40.9179C300.232 40.501 300.232 40.08 300.232 39.6631C300.232 39.5352 300.273 39.4939 300.4 39.4939C301.385 39.4939 302.374 39.4939 303.359 39.4939C303.486 39.4939 303.527 39.5393 303.527 39.6631C303.527 41.1986 303.523 42.734 303.527 44.2695C303.527 44.4346 303.457 44.4511 303.326 44.4511C301.274 44.4511 299.227 44.4511 297.175 44.4511C297.03 44.4511 296.958 44.524 296.958 44.6699C296.958 46.7172 296.958 48.7644 296.958 50.8117C296.958 50.9603 297.034 51.0346 297.187 51.0346C299.223 51.0346 301.258 51.0346 303.293 51.0346C303.449 51.0346 303.527 51.1089 303.527 51.2575C303.527 52.7599 303.527 54.2665 303.527 55.7689C303.527 55.9836 303.527 55.9836 303.318 55.9836C302.358 55.9836 301.397 55.9836 300.433 55.9836C300.277 55.9836 300.228 55.9423 300.232 55.7854C300.244 55.3768 300.232 54.9682 300.232 54.5596C300.232 54.411 300.16 54.3367 300.015 54.3367C297.811 54.3367 295.603 54.3367 293.4 54.3367C293.347 54.3367 293.297 54.3367 293.244 54.3367C293.146 54.3449 293.1 54.2995 293.105 54.2005C293.105 54.1509 293.105 54.0973 293.105 54.0436C293.105 51.9385 293.105 49.8376 293.105 47.7325L293.109 47.7491Z" fill="#fff"/><path d="M298.587 31.2923C298.587 32.1384 298.587 32.9887 298.587 33.8349C298.587 33.9917 298.541 34.0371 298.386 34.0371C296.875 34.033 295.365 34.033 293.855 34.0371C293.699 34.0371 293.654 33.9917 293.654 33.8349C293.658 32.1302 293.658 30.4255 293.654 28.7167C293.654 28.5598 293.699 28.5144 293.855 28.5144C295.365 28.5185 296.875 28.5185 298.386 28.5144C298.541 28.5144 298.587 28.5598 298.587 28.7167C298.578 29.5752 298.587 30.4337 298.587 31.2923ZM296.929 31.2758C296.929 30.9662 296.929 30.6566 296.929 30.347C296.929 30.2273 296.9 30.1819 296.773 30.1819C296.338 30.1902 295.899 30.1902 295.464 30.1819C295.337 30.1819 295.308 30.2315 295.308 30.347C295.312 30.9662 295.312 31.5853 295.308 32.2045C295.308 32.32 295.337 32.3696 295.464 32.3696C295.899 32.3613 296.338 32.3613 296.773 32.3696C296.9 32.3696 296.929 32.32 296.925 32.2045C296.921 31.8949 296.925 31.5853 296.925 31.2758H296.929Z" fill="#fff"/><path d="M309.514 31.2634C309.514 30.4172 309.514 29.567 309.514 28.7208C309.514 28.5681 309.555 28.5186 309.711 28.5186C311.221 28.5227 312.731 28.5227 314.241 28.5186C314.393 28.5186 314.442 28.5598 314.442 28.7167C314.438 30.4214 314.438 32.1261 314.442 33.8349C314.442 33.9876 314.401 34.0371 314.245 34.0371C312.735 34.033 311.225 34.033 309.715 34.0371C309.563 34.0371 309.514 33.9959 309.514 33.839C309.522 32.9805 309.514 32.1219 309.514 31.2634ZM311.172 31.2799C311.172 31.5895 311.172 31.899 311.172 32.2086C311.172 32.3242 311.2 32.3737 311.327 32.3737C311.762 32.3655 312.201 32.3655 312.636 32.3737C312.764 32.3737 312.792 32.3242 312.792 32.2086C312.788 31.5895 312.788 30.9703 312.792 30.3512C312.792 30.2356 312.764 30.1861 312.636 30.1861C312.201 30.1944 311.762 30.1944 311.327 30.1861C311.2 30.1861 311.172 30.2356 311.176 30.3512C311.18 30.6608 311.176 30.9703 311.176 31.2799H311.172Z" fill="#fff"/><path d="M302.969 47.7489C302.969 48.6033 302.969 49.4536 302.969 50.308C302.969 50.4648 302.928 50.5102 302.768 50.5102C301.258 50.5061 299.748 50.5061 298.238 50.5102C298.082 50.5102 298.037 50.4648 298.037 50.308C298.041 48.6033 298.041 46.8986 298.037 45.1898C298.037 45.033 298.078 44.9875 298.238 44.9875C299.748 44.9917 301.258 44.9917 302.768 44.9875C302.924 44.9875 302.969 45.0288 302.969 45.1898C302.961 46.0442 302.969 46.8945 302.969 47.7489ZM301.315 47.7489C301.315 47.4393 301.315 47.1298 301.315 46.8202C301.315 46.7005 301.287 46.6551 301.159 46.6551C300.724 46.6633 300.285 46.6592 299.85 46.6551C299.74 46.6551 299.694 46.6881 299.699 46.8037C299.703 47.4352 299.703 48.0626 299.699 48.6941C299.699 48.8138 299.748 48.8427 299.855 48.8386C300.289 48.8345 300.729 48.8345 301.163 48.8386C301.291 48.8386 301.319 48.789 301.315 48.6735C301.311 48.3639 301.315 48.0543 301.315 47.7448V47.7489Z" fill="#fff"/><path d="M310.06 47.7489C310.06 48.6033 310.06 49.4536 310.06 50.308C310.06 50.4648 310.014 50.5102 309.858 50.5102C308.348 50.5061 306.838 50.5061 305.328 50.5102C305.172 50.5102 305.127 50.4648 305.127 50.308C305.131 48.6033 305.131 46.8986 305.127 45.1898C305.127 45.033 305.172 44.9875 305.328 44.9875C306.838 44.9917 308.348 44.9917 309.858 44.9875C310.014 44.9875 310.06 45.033 310.06 45.1898C310.051 46.0442 310.06 46.8945 310.06 47.7489ZM308.402 47.7613C308.402 47.4393 308.402 47.1215 308.402 46.7996C308.402 46.6922 308.369 46.6551 308.258 46.6551C307.819 46.6592 307.376 46.6592 306.933 46.6551C306.818 46.6551 306.781 46.6922 306.781 46.8078C306.785 47.4393 306.785 48.0667 306.781 48.6982C306.781 48.8056 306.814 48.8427 306.925 48.8427C307.364 48.8386 307.807 48.8386 308.25 48.8427C308.365 48.8427 308.402 48.8056 308.402 48.69C308.398 48.3804 308.402 48.0708 308.402 47.7613Z" fill="#fff"/></svg>