<?xml version="1.0" encoding="UTF-8"?><!DOCTYPE svg PUBLIC "-//W3C//DTD SVG 1.0//EN" "http://www.w3.org/TR/2001/REC-SVG-20010904/DTD/svg10.dtd" []><svg xmlns="http://www.w3.org/2000/svg" xmlns:xlink="http://www.w3.org/1999/xlink" fill="none" height="78" style="fill: none;" viewBox="0 0 330 78" width="330"><path d="M104.117 67.1054H116.418L113.365 12.2788H96.9385L90.9954 30.5016C89.1784 36.6016 87.2801 43.843 85.711 50.1897H85.463C84.2233 43.762 82.4915 36.9294 80.7559 30.5865L75.3087 12.2788H58.5488L55 67.1054H66.6382L67.63 46.2799C68.0445 39.4473 68.2886 30.9875 68.6218 23.5842H68.7884C70.1095 30.7446 72.0079 38.5527 73.8249 44.9804L79.7679 66.2109H89.593L96.3613 44.8146C98.5076 38.3869 100.82 30.5788 102.552 23.5842H102.8C102.8 31.5582 103.048 39.5282 103.296 46.1179L104.121 67.1054H104.117Z" fill="#fff"/><path d="M140.663 67.1054V27.3283H128.114V67.1093H140.663V67.1054ZM134.391 10C130.346 10 127.704 12.6837 127.785 16.2658C127.704 19.6821 130.346 22.4467 134.305 22.4467C138.265 22.4467 141.074 19.6821 141.074 16.2658C140.996 12.6837 138.435 10 134.391 10Z" fill="#fff"/><path d="M154.072 67.1055H166.62V44.1669C166.62 43.0295 166.787 41.8071 167.116 41.0745C167.942 38.7957 170.006 36.4359 173.474 36.4359C178.014 36.4359 179.832 39.9332 179.832 45.0576V67.1017H192.38V43.5114C192.38 31.7973 186.189 26.4299 177.933 26.4299C171.246 26.4299 167.12 30.255 165.47 32.7767H165.222L164.645 27.3245H153.746C153.913 30.8218 154.076 35.0517 154.076 40.0142V67.1017L154.072 67.1055Z" fill="#fff"/><path d="M205.002 18.7026V27.3244H199.636V36.4358H205.002V52.7037C205.002 58.3179 206.157 62.139 208.47 64.4988C210.449 66.5347 213.836 67.9151 217.88 67.9151C221.429 67.9151 224.401 67.5103 226.051 66.8586L225.97 57.5043C225.063 57.6662 223.823 57.8282 222.254 57.8282C218.457 57.8282 217.303 55.6303 217.303 50.8336V36.4358H226.303V27.3244H217.303V15.938L205.002 18.7026Z" fill="#fff"/><path d="M254.465 26.4338C241.505 26.4338 232.92 34.6507 232.92 47.5023C232.92 60.3539 242.001 68.004 253.806 68.004C264.619 68.004 275.103 61.3333 275.103 46.7736C275.103 34.8165 266.847 26.4377 254.465 26.4377V26.4338ZM254.135 35.2214C259.83 35.2214 262.143 41.2404 262.143 47.1784C262.143 54.3388 259.005 59.1355 254.135 59.1355C248.77 59.1355 245.879 54.011 245.879 47.1784C245.879 41.3213 248.107 35.2214 254.135 35.2214Z" fill="#fff"/></svg>