<?xml version="1.0" encoding="UTF-8"?><!DOCTYPE svg PUBLIC "-//W3C//DTD SVG 1.0//EN" "http://www.w3.org/TR/2001/REC-SVG-20010904/DTD/svg10.dtd" []><svg xmlns="http://www.w3.org/2000/svg" xmlns:xlink="http://www.w3.org/1999/xlink" fill="none" height="78" style="fill: none;" viewBox="0 0 330 78" width="330"><path d="M48.1175 41.598V43.6157C48.1175 44.6194 47.9229 45.5822 47.5439 46.4835C47.1649 47.3848 46.6324 48.1837 45.9666 48.8904C45.2906 49.5972 44.5122 50.1502 43.6109 50.5599C42.7096 50.9696 41.7366 51.1744 40.7021 51.1744C39.8111 51.1744 38.92 51.0515 37.9982 50.8057C37.0764 50.5599 36.257 50.1297 35.5196 49.5255C34.7821 48.9109 34.1779 48.1325 33.7067 47.1698C33.2356 46.207 33 44.9779 33 43.4826V25.5178C33 24.4526 33.1844 23.4591 33.5531 22.5373C33.9218 21.6155 34.4441 20.8268 35.1099 20.1509C35.7859 19.4851 36.5848 18.9525 37.5168 18.5736C38.4488 18.1946 39.4833 18 40.6099 18C42.812 18 44.5942 18.717 45.9666 20.1509C46.6426 20.8576 47.1649 21.6872 47.5439 22.65C47.9229 23.6127 48.1175 24.6574 48.1175 25.7841V27.6174H43.447V26.0606C43.447 25.149 43.191 24.3502 42.6686 23.6742C42.1463 22.9982 41.4498 22.6704 40.5587 22.6704C39.4014 22.6704 38.623 23.0289 38.244 23.7459C37.865 24.4628 37.6704 25.3744 37.6704 26.4703V43.1548C37.6704 44.0971 37.8753 44.896 38.285 45.5412C38.6947 46.1865 39.4423 46.504 40.5075 46.504C40.8148 46.504 41.1425 46.4528 41.4908 46.3401C41.839 46.2377 42.1668 46.0636 42.474 45.8178C42.7506 45.572 42.9759 45.234 43.1603 44.8141C43.3446 44.3941 43.4368 43.8513 43.4368 43.206V41.598H48.1072H48.1175Z" fill="#fff"/><path d="M57.1511 50.8979V27.6686H61.8216V30.1472C62.7638 29.2971 63.6959 28.6212 64.6177 28.1295C65.5395 27.6379 66.6661 27.3921 68.0078 27.3921V32.3391C67.5469 32.1547 67.0758 32.0625 66.5842 32.0625C66.0926 32.0625 65.5702 32.1445 65.0069 32.3186C64.4436 32.4927 63.9315 32.7692 63.4706 33.1687C62.9789 33.5681 62.5795 34.0905 62.2825 34.7255C61.9854 35.3605 61.8216 36.1594 61.8216 37.1119V50.9082H57.1511V50.8979Z" fill="#fff"/><path d="M73.4156 27.6687H78.3626L81.5684 42.1512H81.6606L84.8254 27.6687H89.6393L82.9511 54.9334C82.7053 55.9679 82.3673 56.8282 81.9167 57.5042C81.4763 58.1802 80.9641 58.723 80.3803 59.1532C79.7965 59.5834 79.182 59.8804 78.5265 60.0443C77.871 60.2081 77.195 60.3003 76.4883 60.3003H75.208V55.9064H76.263C76.7239 55.9064 77.1233 55.845 77.4511 55.7221C77.7788 55.5992 78.0963 55.3226 78.3729 54.8924C78.6187 54.4623 78.844 53.858 79.0591 53.0796C79.2742 52.3012 79.52 51.2257 79.7965 49.8533L73.4259 27.6789L73.4156 27.6687Z" fill="#fff"/><path d="M97.0137 60.29V27.6686H101.684V29.7785C102.268 29.1025 102.862 28.5392 103.466 28.0783C104.071 27.6174 104.962 27.3921 106.119 27.3921C108.045 27.3921 109.407 28.1295 110.195 29.5942C110.472 30.1165 110.667 30.7515 110.789 31.5197C110.912 32.2776 110.974 33.3018 110.974 34.5923V43.4314C110.974 45.1418 110.933 46.3811 110.841 47.1493C110.656 48.6754 109.95 49.8225 108.731 50.5804C108.116 50.9799 107.235 51.1745 106.078 51.1745C105.166 51.1745 104.347 50.9696 103.63 50.5599C102.913 50.1502 102.299 49.5562 101.776 48.7983H101.684V60.3002H97.0137V60.29ZM106.314 35.2274C106.314 34.2851 106.129 33.5169 105.76 32.9331C105.392 32.3493 104.818 32.0625 104.019 32.0625C103.313 32.0625 102.749 32.3288 102.329 32.8614C101.899 33.394 101.684 34.0905 101.684 34.9508V43.9742C101.684 44.7116 101.909 45.3159 102.35 45.7871C102.79 46.2582 103.354 46.4938 104.019 46.4938C104.91 46.4938 105.504 46.2172 105.832 45.6642C106.15 45.1111 106.314 44.4761 106.314 43.7386V35.2171V35.2274Z" fill="#fff"/><path d="M120.335 27.6687V20.6118H125.006V27.6687H127.894V31.3354H125.006V44.2098C125.006 44.7629 125.057 45.1828 125.17 45.4901C125.272 45.7974 125.446 46.0227 125.692 46.1763C125.938 46.33 126.235 46.4221 126.583 46.4529C126.931 46.4836 127.372 46.4938 127.894 46.4938V50.8877H125.968C124.903 50.8877 124.002 50.7239 123.285 50.3859C122.568 50.0479 121.994 49.6279 121.564 49.1056C121.134 48.5832 120.827 47.9994 120.622 47.3439C120.417 46.6884 120.325 46.0534 120.325 45.4389V31.3354H117.99V27.6687H120.325H120.335Z" fill="#fff"/><path d="M135.688 35.4629C135.688 34.5207 135.75 33.6398 135.873 32.8512C135.995 32.0625 136.221 31.3558 136.559 30.7413C137.112 29.7376 137.901 28.9284 138.915 28.3139C139.939 27.6994 141.178 27.3921 142.653 27.3921C144.128 27.3921 145.367 27.6994 146.391 28.3139C147.416 28.9284 148.204 29.7376 148.747 30.7413C149.085 31.3558 149.31 32.0523 149.433 32.8512C149.556 33.6501 149.618 34.5207 149.618 35.4629V43.1139C149.618 44.0561 149.556 44.937 149.433 45.7256C149.31 46.5245 149.085 47.221 148.747 47.8355C148.194 48.8392 147.405 49.6484 146.391 50.2629C145.367 50.8774 144.128 51.1847 142.653 51.1847C141.178 51.1847 139.939 50.8774 138.915 50.2629C137.89 49.6484 137.102 48.8392 136.559 47.8355C136.221 47.221 135.995 46.5245 135.873 45.7256C135.75 44.9267 135.688 44.0561 135.688 43.1139V35.4629ZM140.359 43.8513C140.359 44.7424 140.564 45.4081 140.973 45.8485C141.383 46.2889 141.946 46.5143 142.643 46.5143C143.339 46.5143 143.902 46.2889 144.312 45.8485C144.722 45.4081 144.927 44.7424 144.927 43.8513V34.7357C144.927 33.8447 144.722 33.1892 144.312 32.7385C143.902 32.2879 143.339 32.0728 142.643 32.0728C141.946 32.0728 141.383 32.2981 140.973 32.7385C140.564 33.1789 140.359 33.8447 140.359 34.7357V43.8513Z" fill="#fff"/><path d="M181.553 41.598V43.6157C181.553 44.6194 181.358 45.5822 180.979 46.4835C180.6 47.3848 180.068 48.1837 179.402 48.8904C178.726 49.5972 177.948 50.1502 177.046 50.5599C176.145 50.9696 175.172 51.1744 174.137 51.1744C173.246 51.1744 172.355 51.0515 171.433 50.8057C170.522 50.5599 169.692 50.1297 168.955 49.5255C168.217 48.9109 167.613 48.1325 167.142 47.1698C166.671 46.207 166.435 44.9779 166.435 43.4826V25.5178C166.435 24.4526 166.62 23.4591 166.988 22.5373C167.357 21.6155 167.869 20.8268 168.545 20.1509C169.221 19.4851 170.02 18.9525 170.952 18.5736C171.884 18.1946 172.919 18 174.045 18C176.247 18 178.029 18.717 179.412 20.1509C180.088 20.8576 180.61 21.6872 180.989 22.65C181.368 23.6127 181.563 24.6574 181.563 25.7841V27.6174H176.893V26.0606C176.893 25.149 176.637 24.3502 176.114 23.6742C175.592 22.9982 174.895 22.6704 174.004 22.6704C172.847 22.6704 172.069 23.0289 171.69 23.7459C171.311 24.4628 171.116 25.3744 171.116 26.4703V43.1548C171.116 44.0971 171.321 44.896 171.731 45.5412C172.14 46.1865 172.888 46.504 173.953 46.504C174.26 46.504 174.588 46.4528 174.936 46.3401C175.285 46.2377 175.612 46.0636 175.92 45.8178C176.196 45.572 176.421 45.234 176.606 44.8141C176.79 44.3839 176.882 43.8513 176.882 43.206V41.598H181.553Z" fill="#fff"/><path d="M190.576 50.8979V27.6686H195.246V30.1472C196.189 29.2971 197.121 28.6212 198.043 28.1295C198.964 27.6379 200.091 27.3921 201.433 27.3921V32.3391C200.972 32.1547 200.501 32.0625 200.009 32.0625C199.517 32.0625 198.995 32.1445 198.432 32.3186C197.868 32.4825 197.356 32.7692 196.895 33.1687C196.404 33.5681 196.004 34.0905 195.707 34.7255C195.4 35.3708 195.246 36.1594 195.246 37.1119V50.9082H190.576V50.8979Z" fill="#fff"/><path d="M206.841 27.6687H211.788L214.993 42.1512H215.086L218.25 27.6687H223.064L216.376 54.9334C216.13 55.9679 215.792 56.8282 215.342 57.5042C214.901 58.1802 214.389 58.723 213.805 59.1532C213.222 59.5834 212.607 59.8804 211.952 60.0443C211.296 60.2081 210.61 60.3003 209.913 60.3003H208.633V55.9064H209.688C210.149 55.9064 210.538 55.845 210.876 55.7221C211.214 55.5992 211.521 55.3226 211.798 54.8924C212.044 54.4623 212.269 53.858 212.484 53.0796C212.699 52.3012 212.945 51.2257 213.222 49.8533L206.851 27.6789L206.841 27.6687Z" fill="#fff"/><path d="M237.997 34.1724C237.967 33.3735 237.711 32.7795 237.239 32.38C236.768 31.9806 236.226 31.786 235.611 31.786C234.874 31.786 234.31 32.0216 233.921 32.4927C233.522 32.9639 233.327 33.5067 233.327 34.1212C233.327 34.5514 233.429 34.9713 233.644 35.381C233.86 35.7907 234.402 36.1697 235.293 36.5076L238.038 37.6036C239.78 38.2795 240.978 39.1911 241.633 40.3587C242.289 41.5263 242.617 42.7861 242.617 44.1586C242.617 45.1316 242.443 46.0431 242.094 46.883C241.746 47.7228 241.265 48.4603 240.65 49.1055C240.036 49.7508 239.308 50.2527 238.448 50.6214C237.598 50.9901 236.666 51.1745 235.652 51.1745C233.757 51.1745 232.17 50.5804 230.889 49.3821C230.244 48.7983 229.732 48.0813 229.333 47.2107C228.933 46.3402 228.718 45.3262 228.687 44.1586H233.081C233.173 44.8038 233.399 45.3979 233.747 45.9509C234.095 46.504 234.72 46.7806 235.601 46.7806C236.277 46.7806 236.881 46.5552 237.414 46.1148C237.946 45.6744 238.212 45.0496 238.212 44.261C238.212 43.6157 238.038 43.0729 237.711 42.612C237.373 42.1511 236.768 41.7619 235.877 41.4239L233.634 40.5943C232.17 40.0412 231.012 39.2321 230.172 38.1464C229.333 37.0607 228.913 35.7395 228.913 34.1827C228.913 33.2097 229.097 32.2981 229.466 31.4583C229.834 30.6184 230.336 29.8912 230.982 29.2869C231.596 28.6724 232.313 28.2115 233.132 27.8837C233.962 27.5662 234.843 27.4023 235.785 27.4023C236.727 27.4023 237.608 27.5662 238.417 27.9042C239.226 28.2422 239.923 28.7133 240.507 29.3279C241.091 29.9424 241.541 30.6594 241.879 31.4992C242.217 32.3391 242.381 33.2301 242.381 34.1827H237.987L237.997 34.1724Z" fill="#fff"/><path d="M251.148 27.6687V20.6118H255.819V27.6687H258.707V31.3354H255.819V44.2098C255.819 44.7629 255.87 45.1828 255.983 45.4901C256.085 45.7974 256.259 46.0227 256.505 46.1763C256.751 46.33 257.048 46.4221 257.396 46.4529C257.744 46.4836 258.185 46.4938 258.707 46.4938V50.8877H256.782C255.716 50.8877 254.815 50.7239 254.098 50.3859C253.381 50.0479 252.808 49.6279 252.378 49.1056C251.947 48.5832 251.64 47.9994 251.435 47.3439C251.23 46.6884 251.138 46.0534 251.138 45.4389V31.3354H248.803V27.6687H251.138H251.148Z" fill="#fff"/><path d="M275.75 50.8979V48.5115H275.658C275.043 49.3718 274.429 50.0273 273.804 50.478C273.179 50.9286 272.298 51.1642 271.172 51.1642C270.619 51.1642 270.066 51.0823 269.502 50.9081C268.939 50.7443 268.396 50.4268 267.874 49.9659C267.352 49.5357 266.932 48.9211 266.614 48.112C266.297 47.3029 266.133 46.2582 266.133 44.9779C266.133 43.6976 266.235 42.5095 266.45 41.516C266.665 40.5226 267.065 39.6929 267.638 39.017C268.191 38.3717 268.939 37.8903 269.881 37.5728C270.824 37.2553 272.032 37.0914 273.497 37.0914H273.999C274.183 37.0914 274.347 37.1017 274.501 37.1324C274.654 37.1631 274.839 37.1734 275.054 37.1734C275.269 37.1734 275.494 37.1836 275.74 37.2143V34.7869C275.74 33.988 275.576 33.3325 275.238 32.8204C274.9 32.2981 274.296 32.042 273.405 32.042C272.79 32.042 272.237 32.2469 271.735 32.6361C271.233 33.0355 270.906 33.6091 270.752 34.3772H266.215C266.338 32.2981 267.044 30.6184 268.325 29.3381C268.939 28.7236 269.666 28.2422 270.527 27.8939C271.387 27.5457 272.339 27.3716 273.415 27.3716C274.388 27.3716 275.31 27.5252 276.16 27.8325C277.01 28.1397 277.768 28.6006 278.403 29.2049C279.017 29.8195 279.499 30.5774 279.867 31.4992C280.236 32.4107 280.421 33.4862 280.421 34.705V50.8774H275.75V50.8979ZM275.75 40.9118C275.228 40.8196 274.808 40.7786 274.47 40.7786C273.466 40.7786 272.596 41.0142 271.879 41.4853C271.162 41.9565 270.803 42.827 270.803 44.0766C270.803 44.9677 271.018 45.6846 271.448 46.2275C271.879 46.7703 272.473 47.0571 273.231 47.0571C273.988 47.0571 274.644 46.801 275.084 46.2787C275.525 45.7563 275.75 45.0291 275.75 44.0766V40.9118Z" fill="#fff"/><path d="M289.085 18.2766H293.756V44.343C293.756 45.2341 293.92 45.8281 294.237 46.1558C294.555 46.4734 295.159 46.6884 296.05 46.7806V51.1745C294.985 51.1745 294.022 51.0926 293.162 50.9185C292.301 50.7546 291.574 50.4268 290.96 49.9352C290.345 49.4743 289.884 48.8291 289.557 47.9892C289.229 47.1493 289.075 46.0432 289.075 44.6707V18.2766H289.085Z" fill="#fff"/></svg>